<svg id="Layer_1" data-name="Layer 1" xmlns="http://www.w3.org/2000/svg" viewBox="0 0 512 512"><title>settings</title><path d="M275.75,514.24H234.91c-7.95,0-14.48-6.81-16.2-13.38l-15.47-58.11a5.19,5.19,0,0,0-2-2l-36.63-15.32a5.6,5.6,0,0,0-3.52-.09l-51.79,29.37c-5.9,3.39-14.89,2.55-20.06-2-.32-.27-8.9-7.64-15.41-14-6.63-6.83-14-15.47-14.3-15.83a18.09,18.09,0,0,1-1.86-20.06L87.49,351a5.07,5.07,0,0,0,.07-2.79L72.31,311.6A5.23,5.23,0,0,0,70,309L12.62,293.2A17.89,17.89,0,0,1,0,277.35l.08-41.17C.47,228.55,6,221.77,12.9,220l57.38-15.57a5.13,5.13,0,0,0,2.11-2l15.36-36.63a5.14,5.14,0,0,0,.13-3.44L58.43,110.6a18.28,18.28,0,0,1,1.8-20c.37-.43,7.77-9.15,14.5-15.75C81.16,68.33,89.86,61,90.23,60.68c5.24-4.4,14.11-5.21,20-1.81L162,88.56a17.46,17.46,0,0,0,2.89,0l36.61-15.34a6,6,0,0,0,2.62-2.8l15.81-58.24c1.67-6,7.81-14.41,16.25-14.41H277c8.41,0,14.53,8.48,16.19,14.5L308.76,71.6a5.36,5.36,0,0,0,2,2.08l36.55,15.25a5.65,5.65,0,0,0,3.41.15l51.79-29.43c5.94-3.39,14.88-2.54,20.08,1.94.32.28,9.06,7.72,15.56,14.3s13.93,15.23,14.24,15.6a18.07,18.07,0,0,1,1.84,20.05l-29.77,51.79a5.46,5.46,0,0,0-.08,2.87l15.2,36.52A5.22,5.22,0,0,0,442,205.3l57.39,15.82A17.88,17.88,0,0,1,512,237l-.08,41.28c-.46,7.56-5.93,14.29-12.74,16.16l-57.6,15.5a5.26,5.26,0,0,0-2.1,2l-15.27,36.56a5.2,5.2,0,0,0-.16,3.49l29.46,51.81a18.12,18.12,0,0,1-1.88,20c-.36.41-7.79,9.06-14.17,15.54-6.77,6.71-15.46,14-15.83,14.33-5.2,4.38-14.09,5.18-20,1.79L350,425.7a16.47,16.47,0,0,0-2.91,0L310.5,440.88a5.42,5.42,0,0,0-2.63,2.42L292,501C290.18,507.52,283.61,514.24,275.75,514.24ZM235.8,497h39.09a2.09,2.09,0,0,0,.49-.65l15.88-57.67c1.74-6.22,7.35-12.09,13.34-14L340,410a19.87,19.87,0,0,1,8.46-1.72,20.86,20.86,0,0,1,10.16,2.5l51.64,29.76a183.82,183.82,0,0,0,15-13.34c5.91-6,13.18-14.46,13.25-14.54L409,360.44a21.77,21.77,0,0,1-.48-19.15l14.82-35.48c1.82-5.45,7.54-10.84,13.69-12.54l57.61-15.5.1-40.44L437.32,221.9a21.8,21.8,0,0,1-13.87-13.13L408.7,173.32c-2.55-5-2.31-13.07.81-18.55L439.29,103a189.3,189.3,0,0,0-13.36-14.9c-6-6.08-14.45-13.28-14.54-13.35l-52.13,29.38a20.74,20.74,0,0,1-10.13,2.5,20.32,20.32,0,0,1-9-2L304.66,89.8c-5.38-1.8-10.9-7.66-12.56-13.73L276.52,16.75a6.48,6.48,0,0,0-1-1.73H237.58a5.81,5.81,0,0,0-1.06,1.74L220.7,75c-1.53,5.43-6.69,12.25-13.29,14.36L172,104.24a20.06,20.06,0,0,1-8.58,1.76,20.49,20.49,0,0,1-10-2.48L101.7,73.84c-.44.09-8.8,7.17-14.78,13.25-6.26,6.15-13.4,14.56-13.47,14.64h0c.08,0,.05.43.1.62l29.36,51.58a21.69,21.69,0,0,1,.47,19.14L88.5,208.58c-1.8,5.44-7.72,10.94-13.82,12.51L17.33,236.65,17.24,277l57.39,15.44A21.67,21.67,0,0,1,88.48,305.6l14.75,35.45c2.58,5,2.38,13.06-.77,18.57L72.65,411.43c.11.38,7.33,8.87,13.38,15.1,6,5.79,14.42,13.05,14.5,13.12l52.16-29.41a22.22,22.22,0,0,1,19.07-.55l35.61,14.9c5.38,1.79,10.89,7.63,12.53,13.68l15.49,58.18A2.54,2.54,0,0,0,235.8,497ZM256,345.92a88.63,88.63,0,1,1,62.57-25.8A88.68,88.68,0,0,1,256,345.92Zm-.12-160.22a71.65,71.65,0,1,0,50.72,21.13A71.13,71.13,0,0,0,255.92,185.7Z" fill="#fff"/></svg>