<?xml version="1.0" encoding="UTF-8" standalone="no"?>
<!DOCTYPE svg PUBLIC "-//W3C//DTD SVG 1.1//EN" "http://www.w3.org/Graphics/SVG/1.1/DTD/svg11.dtd">
<svg width="100%" height="100%" viewBox="0 0 16 16" version="1.1" xmlns="http://www.w3.org/2000/svg" xmlns:xlink="http://www.w3.org/1999/xlink" xml:space="preserve" xmlns:serif="http://www.serif.com/" style="fill-rule:evenodd;clip-rule:evenodd;stroke-linejoin:round;stroke-miterlimit:2;">
    <g transform="matrix(0.0677966,0,0,0.0677966,0.881356,-0.677966)">
        <g transform="matrix(1.66113,0,0,1.66113,-28.1395,-18.1395)">
            <circle cx="35" cy="35" r="18.06"/>
        </g>
        <g transform="matrix(1.66113,0,0,1.66113,-28.1395,69.8605)">
            <circle cx="35" cy="35" r="18.06"/>
        </g>
        <g transform="matrix(1.66113,0,0,1.66113,-28.1395,157.86)">
            <circle cx="35" cy="35" r="18.06"/>
        </g>
        <g transform="matrix(1.66113,0,0,1.66113,121.86,-18.1395)">
            <circle cx="35" cy="35" r="18.06"/>
        </g>
        <g transform="matrix(1.66113,0,0,1.66113,121.86,69.8605)">
            <circle cx="35" cy="35" r="18.06"/>
        </g>
        <g transform="matrix(1.66113,0,0,1.66113,121.86,157.86)">
            <circle cx="35" cy="35" r="18.06"/>
        </g>
    </g>
</svg>
